<svg xmlns="http://www.w3.org/2000/svg" viewBox="0 0 653.15 780.29"><defs><style>.cls-1{fill:#f37348;}.cls-2{fill:#f3784f;}</style></defs><g id="Layer_2" data-name="Layer 2"><g id="Layer_1-2" data-name="Layer 1"><path class="cls-1" d="M0,731.53c6.09-4.75,12.15-9.52,18.27-14.22Q45.15,696.63,72.08,676c2.39-1.83,3.07-4,3-6.89-.09-15,0-30,0-44.93q0-275.84.08-551.66c0-5.32-1.26-9.32-5.06-13.29C53,41.35,36.2,23.11,19.32,5c-1-1.06-2.81-2-2.26-3.61C17.76-.71,19.93.2,21.44.2,95.81.21,170.19.1,244.56.43A670,670,0,0,1,313.78,4c35.29,3.81,70,10.62,103.29,23.07A248.62,248.62,0,0,1,510.18,88c29.63,30.73,51,66.6,65.61,106.66a406.4,406.4,0,0,1,21.44,92.48,609.63,609.63,0,0,1,3.07,105.09c-1,18.45-2.4,36.84-4.74,55.14a463.5,463.5,0,0,1-11.95,61.08c-7.27,27.22-17,53.47-30.6,78.21a258.6,258.6,0,0,1-70,82.08,281,281,0,0,1-117.8,53.44c-34.22,6.81-68.79,9.3-103.58,10C179.82,734,98,732.59,16.11,733,11,733,5.85,733,.73,733ZM391.27,118.92c-1.59.32-2.93-.45-4.28-1a262.19,262.19,0,0,0-66-18.7A326.64,326.64,0,0,0,238.93,97c-6.72.7-7.16,1-7.16,7.88V662.56c0,7.32.13,14.65,0,22-.1,4.09,1,6,5.64,5.78,23.25-1.15,46.47-1.89,69.55-5.61,26.53-4.28,49.84-15.28,70.33-32.13,30.9-25.41,52.08-58,66.88-94.79,17.89-44.54,26-91.32,29.66-138.87a754,754,0,0,0,1.38-100.73c-1.81-32.1-5.29-63.92-12.72-95.25-8.29-34.92-21.09-67.86-42.26-97.19C406.7,107,390.44,91.15,370.61,79.4c-32-19-67.66-26.19-104-30.2-25-2.76-50.15-2.4-75.27-2.46-4.31,0-5.45,1.63-5.42,5.56q.26,34.68.28,69.36-.07,165.49-.22,331,0,103.35,0,206.69c0,8.65.06,17.3,0,26,0,3.71,1.33,5.34,5.34,5.15,6.64-.3,13.31-.08,20-.09,7.52,0,7.52,0,7.51-7.75V93c0-1.17,0-2.34,0-3.5-.11-2.41.94-3.67,3.4-4,8.73-1.12,17.42-2.9,26.19-3.41,24.26-1.42,48.42-1,72.61,2.64,25,3.72,46.55,14.14,66.33,29.08,1.65,1.25,4.3,2.2,3.94,5.18Z"/><path class="cls-2" d="M535.77,77.5C545,82.38,551.8,88.16,558.5,94c25.46,22.15,44.77,48.93,59,79.46,14.56,31.28,23.39,64.19,28.66,98.19A628.77,628.77,0,0,1,652.79,388c-.91,28.25-3,56.46-7.56,84.39-8.24,50.85-22.31,99.84-47.91,145-22.62,39.88-51.69,74.16-89.76,100.1-25.58,17.43-53.86,29.31-83.41,38.42-25.8,8-52.19,13.08-78.77,17.2-19.71,3-39.64,4.32-59.58,5.32-65,3.23-130.09,1.14-195.13,1.72-17.14.15-34.28-.24-51.41.17-5.66.13-8.77-1.65-11.26-6.65-4.1-8.24-4.4-8.1,4.85-8.1,65.23,0,130.46.3,195.69-.14,28.91-.2,57.88-.23,86.7-3.56,27.57-3.18,55.09-6.72,82-13.53,43.72-11,83.71-29.63,118.86-58.37a295.75,295.75,0,0,0,55.56-59.66c16.33-23.38,28.86-48.85,38.66-75.7a449.94,449.94,0,0,0,22.25-90.3,708,708,0,0,0,6.35-77,698.87,698.87,0,0,0-1.5-71.8C635.1,281.1,629.87,247.1,619.92,214c-10.6-35.29-25.95-68.29-49.22-97.2-9.6-11.93-20.45-22.75-30.61-34.18C538.91,81.32,537.81,79.93,535.77,77.5Z"/><path class="cls-1" d="M391.21,119l1.31.09-.25.62-1-.79Z"/></g></g></svg>